<?xml version="1.0" encoding="UTF-8"?>
<svg id="Layer_1" data-name="Layer 1" xmlns="http://www.w3.org/2000/svg" viewBox="0 0 96.19 112.58">
  <defs>
    <style>
      .cls-1 {
        stroke: #293f61;
      }

      .cls-1, .cls-2 {
        fill: none;
        stroke-miterlimit: 10;
      }

      .cls-2 {
        stroke: #2a4061;
      }
    </style>
  </defs>
  <path class="cls-2" d="m83.16,28.57l-79.76-.63C1.03,32.26.15,38.95.62,44.73c.12,1.44.21,2.88.42,4.39.23,1.64.37,2.7.81,4.41,1.95,7.57,6.67,14.35,10.18,21.34,5.7,11.35,8,24.19,6.69,36.81,3.71.03,49.2.39,49.2.39"/>
  <path class="cls-1" d="m81.26,67.43s.05,12.38.06,14.98c-.18,0-13.54-.11-13.54-.11"/>
  <line class="cls-1" x1="67.78" y1="81.82" x2="67.92" y2="112.57"/>
  <path class="cls-1" d="m82.7,28.25l12.73,39.44.07.23c-2.35,0-14.04,0-14.04,0"/>
  <line class="cls-1" x1="54.93" y1=".62" x2="54.93" y2="20.54"/>
  <line class="cls-1" x1="32.52" y1=".62" x2="32.52" y2="20.54"/>
  <polyline class="cls-1" points="49.6 4.71 54.93 .62 60.09 4.36"/>
  <polyline class="cls-1" points="27.19 15.03 32.52 20.54 37.5 15.03"/>
</svg>