<?xml version="1.0" encoding="UTF-8"?>
<svg id="Layer_1" data-name="Layer 1" xmlns="http://www.w3.org/2000/svg" viewBox="0 0 119.22 114.43">
  <defs>
    <style>
      .cls-1 {
        fill: none;
        stroke: #293f61;
        stroke-miterlimit: 10;
      }
    </style>
  </defs>
  <path class="cls-1" d="m3.91,5.76v74.4c.06,0,.09,0,.09,0l115.01-.14"/>
  <line class="cls-1" x1="118.42" y1="5.62" x2="3.41" y2="5.76"/>
  <line class="cls-1" x1="118.72" y1="5.11" x2="118.71" y2="80.55"/>
  <line class="cls-1" x1="119.01" y1="17.06" x2="4" y2="17.19"/>
  <line class="cls-1" x1="12.38" y1="11.95" x2="10.5" y2="11.96"/>
  <line class="cls-1" x1="17.73" y1="11.95" x2="15.85" y2="11.96"/>
  <line class="cls-1" x1="23.16" y1="11.95" x2="21.28" y2="11.96"/>
  <line class="cls-1" x1="66.09" y1="38.14" x2="54.67" y2="60.18"/>
  <line class="cls-1" x1="53.23" y1="80.1" x2="53.21" y2="104.79"/>
  <line class="cls-1" x1="70.26" y1="80.12" x2="70.24" y2="104.81"/>
  <line class="cls-1" x1="92.4" y1="113.93" x2="31.36" y2="113.85"/>
  <line class="cls-1" x1="84.56" y1="104.83" x2="38.3" y2="104.77"/>
  <line class="cls-1" x1="46.55" y1="39.97" x2="37.42" y2="49.77"/>
  <line class="cls-1" x1="37.32" y1="49.16" x2="46.86" y2="57.97"/>
  <line class="cls-1" x1="73.39" y1="58.47" x2="82.83" y2="48.33"/>
  <line class="cls-1" x1="82.94" y1="48.96" x2="73.07" y2="39.85"/>
  <path class="cls-1" d="m31.34,114.34c0-5.29,3.11-9.58,6.96-9.58"/>
  <path class="cls-1" d="m92.08,114.43c0-5.3-3.37-9.6-7.52-9.6"/>
</svg>