<?xml version="1.0" encoding="utf-8"?>
<!-- Generator: Adobe Illustrator 27.4.0, SVG Export Plug-In . SVG Version: 6.00 Build 0)  -->
<svg version="1.1" id="Layer_1" xmlns="http://www.w3.org/2000/svg" xmlns:xlink="http://www.w3.org/1999/xlink" x="0px" y="0px"
	 viewBox="0 0 194.1 187.1" style="enable-background:new 0 0 194.1 187.1;" xml:space="preserve">
<style type="text/css">
	.st0{fill:none;stroke:#2D3F5E;stroke-width:3;stroke-miterlimit:10;}
	.st1{fill:#2D3F5E;}
	.st2{font-family:'ArialMT';}
	.st3{font-size:37.9966px;}
	.st4{font-size:38px;}
	.st5{font-size:38.0026px;}
</style>
<path class="st0" d="M158.4,32.8c31.8,18.2,39.9,60.1,28.5,92.7c-11.9,34-44.2,57.9-80.2,59.2c-1.1,0-2.2,0.1-3.4,0.1
	c-35.2,0-68.3-22.9-83.1-58"/>
<text transform="matrix(-4.135624e-02 -0.9991 0.9991 -4.135624e-02 26.9329 118.694)" class="st1 st2 st3">c</text>
<text transform="matrix(7.880702e-02 -0.9969 0.9969 7.880702e-02 25.1121 101.4914)" class="st1 st2 st4">y</text>
<text transform="matrix(0.3533 -0.9355 0.9355 0.3533 26.0121 85.2523)" class="st1 st2 st4">b</text>
<text transform="matrix(0.5721 -0.8202 0.8202 0.5721 33.152 66.402)" class="st1 st2 st4">e</text>
<text transform="matrix(0.7167 -0.6974 0.6974 0.7167 43.5023 51.8814)" class="st1 st2 st4">r</text>
<text transform="matrix(0.8299 -0.5579 0.5579 0.8299 51.4621 43.8017)" class="st1 st2 st4">s</text>
<text transform="matrix(0.9345 -0.3559 0.3559 0.9345 64.8239 34.9624)" class="st1 st2 st4">p</text>
<text transform="matrix(0.9925 -0.1222 0.1222 0.9925 81.6121 29.0218)" class="st1 st2 st4">h</text>
<text transform="matrix(0.9932 0.1162 -0.1162 0.9932 101.102 26.6318)" class="st1 st2 st4">e</text>
<text transform="matrix(0.9681 0.2507 -0.2507 0.9681 119.1318 28.9726)" class="st1 st2 st5">r</text>
<text transform="matrix(0.9028 0.43 -0.43 0.9028 129.8324 31.1219)" class="st1 st2 st4">e</text>
</svg>
