<?xml version="1.0" encoding="UTF-8"?>
<svg id="Layer_1" data-name="Layer 1" xmlns="http://www.w3.org/2000/svg" viewBox="0 0 200.69 192.23">
  <defs>
    <style>
      .cls-1 {
        fill: none;
        stroke: #faa900;
        stroke-miterlimit: 10;
        stroke-width: 3px;
      }

      .cls-2 {
        font-size: 38px;
      }

      .cls-2, .cls-3, .cls-4 {
        fill: #faa900;
        font-family: ArialMT, Arial;
        isolation: isolate;
      }

      .cls-3 {
        font-size: 38px;
      }

      .cls-4 {
        font-size: 38px;
      }
    </style>
  </defs>
  <path class="cls-1" d="m165.8,38.73c31.8,18.2,39.9,60.1,28.5,92.7-11.9,34-44.2,57.9-80.2,59.2-1.1,0-2.2.1-3.4.1-35.2,0-68.3-22.9-83.1-58"/>
  <text class="cls-2" transform="translate(34.33 124.62) rotate(-92.37)"><tspan x="0" y="0">c</tspan></text>
  <text class="cls-4" transform="translate(32.51 107.42) rotate(-85.48)"><tspan x="0" y="0">y</tspan></text>
  <text class="cls-4" transform="translate(33.41 91.18) rotate(-69.31)"><tspan x="0" y="0">b</tspan></text>
  <text class="cls-4" transform="translate(40.55 72.33) rotate(-55.1)"><tspan x="0" y="0">e</tspan></text>
  <text class="cls-4" transform="translate(50.9 57.81) rotate(-44.22)"><tspan x="0" y="0">r</tspan></text>
  <text class="cls-4" transform="translate(58.86 49.73) rotate(-33.91)"><tspan x="0" y="0">s</tspan></text>
  <text class="cls-4" transform="translate(72.22 40.89) rotate(-20.85)"><tspan x="0" y="0">p</tspan></text>
  <text class="cls-4" transform="translate(89.01 34.95) rotate(-7.02)"><tspan x="0" y="0">h</tspan></text>
  <text class="cls-4" transform="translate(108.5 32.56) rotate(6.67)"><tspan x="0" y="0">e</tspan></text>
  <text class="cls-3" transform="translate(126.53 34.9) rotate(14.52)"><tspan x="0" y="0">r</tspan></text>
  <text class="cls-4" transform="translate(137.23 37.05) rotate(25.47)"><tspan x="0" y="0">e</tspan></text>
</svg>