<?xml version="1.0" encoding="UTF-8"?>
<svg id="Layer_1" data-name="Layer 1" xmlns="http://www.w3.org/2000/svg" viewBox="0 0 119.16 119.28">
  <defs>
    <style>
      .cls-1 {
        fill: none;
        stroke: #293f61;
        stroke-miterlimit: 10;
      }
    </style>
  </defs>
  <line class="cls-1" x1="6.96" y1="52.86" x2="6.96" y2="13.47"/>
  <line class="cls-1" x1="6.96" y1="105.86" x2="6.96" y2="65.77"/>
  <line class="cls-1" x1="105.75" y1="111.94" x2="13.41" y2="111.94"/>
  <line class="cls-1" x1="112.2" y1="65.77" x2="112.2" y2="105.48"/>
  <line class="cls-1" x1="112.2" y1="13.57" x2="112.2" y2="52.86"/>
  <line class="cls-1" x1="13.41" y1="6.69" x2="105.75" y2="6.69"/>
  <polyline class="cls-1" points="6.96 13.47 13.41 13.47 13.41 6.69"/>
  <polyline class="cls-1" points="13.41 6.69 13.41 .55 .5 .55 .5 13.47 6.96 13.47"/>
  <polyline class="cls-1" points="6.96 65.77 .5 65.77 .5 52.86 13.41 52.86 13.41 65.77 6.96 65.77"/>
  <polyline class="cls-1" points="13.41 111.94 13.41 118.78 .5 118.78 .5 105.86 13.41 105.86 13.41 111.94"/>
  <polyline class="cls-1" points="105.75 112.32 105.75 105.86 112.2 105.86"/>
  <polyline class="cls-1" points="112.2 105.86 118.66 105.86 118.66 118.78 105.75 118.78 105.75 112.32"/>
  <polyline class="cls-1" points="112.2 65.77 105.75 65.77 105.75 52.86 112.2 52.86"/>
  <polyline class="cls-1" points="112.2 52.86 118.66 52.86 118.66 65.77 112.2 65.77"/>
  <rect class="cls-1" x="105.75" y=".5" width="12.91" height="12.91"/>
  <path class="cls-1" d="m68.95,75.18c-4.44,2.85-9.72,4.5-15.39,4.5-15.77,0-28.55-12.78-28.55-28.55s12.78-28.55,28.55-28.55,28.55,12.78,28.55,28.55c0,6.29-2.04,12.11-5.48,16.83"/>
  <path class="cls-1" d="m68.83,98.9l.18-38.57c3.21,3.22,27.34,27.43,27.34,27.43"/>
  <line class="cls-1" x1="79.35" y1="84.55" x2="68.83" y2="98.55"/>
  <line class="cls-1" x1="78.95" y1="84.47" x2="96.03" y2="87.61"/>
</svg>